# xmcd
#
# Track frame offsets: 
#        150
#        12589
#        25336
#        38483
#        50041
#        61521
#        73789
#        85476
#        97737
#        111988
#        124586
#        137744
#        149555
#        161186
#        172848
#        183107
#        194011
#        208925
#        220493
#
# Disc length: 3084 seconds
#
# Revision: 1
# Processed by: cddbd v1.5.1PL0 Copyright (c) Steve Scherf et al.
# Submitted via: ExactAudioCopy v0.90b4
#
DISCID=1b0c0a13
DTITLE=Muddy Waters - The Complete Recordings 1941-1948 [CD2]
DYEAR=2000
DGENRE=Blues
TTITLE0=Burying Ground Blues
TTITLE1=Come To Me Baby
TTITLE2=You Can't Make The Grade
TTITLE3=Gypsy Woman
TTITLE4=Little Anna Mae
TTITLE5=Good Lookin' Woman
TTITLE6=Mean Disposition
TTITLE7=I Can't Be Satisfied
TTITLE8=I Feel Like Going Home
TTITLE9=Train Fare Home Blues
TTITLE10=Down South Blues
TTITLE11=Kind Hearted Woman
TTITLE12=Sittin' Here And Drinkin' Whiskey Blues
TTITLE13=You're Gonna Miss Me
TTITLE14=Mean Red Spider
TTITLE15=Stand Here Tremblin'
TTITLE16=Streamline Woman
TTITLE17=Hard Days
TTITLE18=Muddy Jumps One
EXTD=
EXTT0=
EXTT1=
EXTT2=
EXTT3=
EXTT4=
EXTT5=
EXTT6=
EXTT7=
EXTT8=
EXTT9=
EXTT10=
EXTT11=
EXTT12=
EXTT13=
EXTT14=
EXTT15=
EXTT16=
EXTT17=
EXTT18=
PLAYORDER=
